# xmcd CD database file
#
# Track frame offsets:
#	150
#	8557
#	20555
#	31672
#	42142
#	51082
#	66292
#	81285
#	91095
#	104342
#	116425
#	127190
#	137157
#	148357
#	163540
#	174317
#	187090
#	200485
#	211437
#	224910
#
# Disc length: 3241 seconds
#
# Revision: 1
# Processed by: cddbd v1.5.2PL0 Copyright (c) Steve Scherf et al.
# Submitted via: CDex 1.70beta2
#
DISCID=270ca714
DTITLE=Various Artist - Country Favourites disc 3
DYEAR=1998
DGENRE=Country
TTITLE0=Waylon Jennings - Abilene
TTITLE1=Conway Twitty - Sitting in a dim cafe
TTITLE2=George Jones - once a day
TTITLE3=Gene Simmons - way down yonder in baton rouge
TTITLE4=Sandy Posey - born a woman
TTITLE5=Don Fardon - indian reservation
TTITLE6=Jeannie C Riley - harper valley pta
TTITLE7=Dave Dudley - cowboy boots
TTITLE8=Roy Acuff - Tennessee waltz
TTITLE9=Tex Ritter - goodbye my little cherokee
TTITLE10=Donna Fargo - all that's keeping me alive
TTITLE11=Johnny Paycheck - who needs your love
TTITLE12=Rex Allen Jr. - dreams on Texas ladies
TTITLE13=Kenny Rogers - for the good times
TTITLE14=Ferlin Husky - gone
TTITLE15=Lee Hazelwood - these boots are made for walking
TTITLE16=Tennessee - kentucky sundown
TTITLE17=Hank Locklin - send me the pillow that you dream on
TTITLE18=Timi Yuro, Willie Nelson - did I ever love you
TTITLE19=More Tequila - he thinks he'll keep her
EXTD=YEAR: 1998
EXTT0=
EXTT1=
EXTT2=
EXTT3=
EXTT4=
EXTT5=
EXTT6=
EXTT7=
EXTT8=
EXTT9=
EXTT10=
EXTT11=
EXTT12=
EXTT13=
EXTT14=
EXTT15=
EXTT16=
EXTT17=
EXTT18=
EXTT19=
PLAYORDER=
